<mxfile host="Electron" agent="Mozilla/5.0 (Windows NT 10.0; Win64; x64) AppleWebKit/537.36 (KHTML, like Gecko) draw.io/24.7.17 Chrome/128.0.6613.36 Electron/32.0.1 Safari/537.36" version="24.7.17">
  <diagram name="Page-1" id="IFVaDlKF95iOJ5e60ZkD">
    <mxGraphModel dx="1912" dy="1115" grid="1" gridSize="10" guides="1" tooltips="1" connect="1" arrows="1" fold="1" page="1" pageScale="1" pageWidth="850" pageHeight="1100" math="0" shadow="0">
      <root>
        <mxCell id="0" />
        <mxCell id="1" parent="0" />
        <mxCell id="pDsfpa7ZJhmcw9KZ6Ipp-4" value="" style="group" parent="1" vertex="1" connectable="0">
          <mxGeometry x="60" y="60" width="760" height="910" as="geometry" />
        </mxCell>
        <mxCell id="pDsfpa7ZJhmcw9KZ6Ipp-1" value="" style="shape=folder;fontStyle=1;spacingTop=10;tabWidth=230;tabHeight=30;tabPosition=left;html=1;whiteSpace=wrap;" parent="pDsfpa7ZJhmcw9KZ6Ipp-4" vertex="1">
          <mxGeometry width="732.11" height="910" as="geometry" />
        </mxCell>
        <mxCell id="pDsfpa7ZJhmcw9KZ6Ipp-2" value="&amp;lt;&amp;lt;model&amp;gt;&amp;gt; Multi-Layered Application" style="text;html=1;align=center;verticalAlign=middle;whiteSpace=wrap;rounded=0;fontStyle=1" parent="pDsfpa7ZJhmcw9KZ6Ipp-4" vertex="1">
          <mxGeometry width="230" height="29.63" as="geometry" />
        </mxCell>
        <mxCell id="pDsfpa7ZJhmcw9KZ6Ipp-17" value="Users" style="shape=folder;fontStyle=1;spacingTop=10;tabWidth=40;tabHeight=20;tabPosition=left;html=1;whiteSpace=wrap;" parent="pDsfpa7ZJhmcw9KZ6Ipp-4" vertex="1">
          <mxGeometry x="50" y="50" width="150" height="80" as="geometry" />
        </mxCell>
        <mxCell id="pDsfpa7ZJhmcw9KZ6Ipp-18" value="" style="triangle;whiteSpace=wrap;html=1;rotation=-90;" parent="pDsfpa7ZJhmcw9KZ6Ipp-4" vertex="1">
          <mxGeometry x="172" y="77.22" width="16.78" height="19.25" as="geometry" />
        </mxCell>
        <mxCell id="pDsfpa7ZJhmcw9KZ6Ipp-45" value="" style="group" parent="pDsfpa7ZJhmcw9KZ6Ipp-4" vertex="1" connectable="0">
          <mxGeometry x="400" y="280" width="300" height="220" as="geometry" />
        </mxCell>
        <mxCell id="pDsfpa7ZJhmcw9KZ6Ipp-37" value="" style="shape=folder;fontStyle=1;spacingTop=10;tabWidth=170;tabHeight=30;tabPosition=left;html=1;whiteSpace=wrap;" parent="pDsfpa7ZJhmcw9KZ6Ipp-45" vertex="1">
          <mxGeometry width="300" height="220" as="geometry" />
        </mxCell>
        <mxCell id="pDsfpa7ZJhmcw9KZ6Ipp-38" value="Business/Service Layer" style="text;html=1;align=center;verticalAlign=middle;whiteSpace=wrap;rounded=0;fontStyle=1" parent="pDsfpa7ZJhmcw9KZ6Ipp-45" vertex="1">
          <mxGeometry width="150" height="29.63" as="geometry" />
        </mxCell>
        <mxCell id="pDsfpa7ZJhmcw9KZ6Ipp-39" value="" style="triangle;whiteSpace=wrap;html=1;rotation=-90;" parent="pDsfpa7ZJhmcw9KZ6Ipp-45" vertex="1">
          <mxGeometry x="147" y="4.220000000000027" width="16.78" height="19.25" as="geometry" />
        </mxCell>
        <mxCell id="pDsfpa7ZJhmcw9KZ6Ipp-40" value="Record Components (Create, Read, Update, Delete)" style="shape=folder;fontStyle=1;spacingTop=10;tabWidth=100;tabHeight=20;tabPosition=left;html=1;whiteSpace=wrap;" parent="pDsfpa7ZJhmcw9KZ6Ipp-45" vertex="1">
          <mxGeometry x="37" y="50" width="123" height="80" as="geometry" />
        </mxCell>
        <mxCell id="pDsfpa7ZJhmcw9KZ6Ipp-41" value="record-service.js" style="text;html=1;align=center;verticalAlign=middle;whiteSpace=wrap;rounded=0;fontStyle=0" parent="pDsfpa7ZJhmcw9KZ6Ipp-45" vertex="1">
          <mxGeometry x="37" y="50" width="100" height="19.63" as="geometry" />
        </mxCell>
        <mxCell id="pDsfpa7ZJhmcw9KZ6Ipp-43" value="Record Entities" style="shape=folder;fontStyle=1;spacingTop=10;tabWidth=100;tabHeight=20;tabPosition=left;html=1;whiteSpace=wrap;" parent="pDsfpa7ZJhmcw9KZ6Ipp-45" vertex="1">
          <mxGeometry x="27" y="150" width="110" height="60" as="geometry" />
        </mxCell>
        <mxCell id="pDsfpa7ZJhmcw9KZ6Ipp-44" value="record.js" style="text;html=1;align=center;verticalAlign=middle;whiteSpace=wrap;rounded=0;fontStyle=0" parent="pDsfpa7ZJhmcw9KZ6Ipp-45" vertex="1">
          <mxGeometry x="27" y="150" width="100" height="19.63" as="geometry" />
        </mxCell>
        <mxCell id="pDsfpa7ZJhmcw9KZ6Ipp-48" style="rounded=0;orthogonalLoop=1;jettySize=auto;html=1;exitX=0.5;exitY=1;exitDx=0;exitDy=0;exitPerimeter=0;dashed=1;strokeWidth=2;endArrow=open;endFill=0;entryX=0.5;entryY=0;entryDx=0;entryDy=0;" parent="pDsfpa7ZJhmcw9KZ6Ipp-45" source="pDsfpa7ZJhmcw9KZ6Ipp-40" target="pDsfpa7ZJhmcw9KZ6Ipp-44" edge="1">
          <mxGeometry relative="1" as="geometry">
            <mxPoint x="-80" y="15" as="sourcePoint" />
            <mxPoint x="10" y="95" as="targetPoint" />
          </mxGeometry>
        </mxCell>
        <mxCell id="pDsfpa7ZJhmcw9KZ6Ipp-19" value="System" style="shape=folder;fontStyle=1;spacingTop=10;tabWidth=40;tabHeight=20;tabPosition=left;html=1;whiteSpace=wrap;" parent="1" vertex="1">
          <mxGeometry x="430" y="110" width="150" height="80" as="geometry" />
        </mxCell>
        <mxCell id="pDsfpa7ZJhmcw9KZ6Ipp-20" value="" style="triangle;whiteSpace=wrap;html=1;rotation=-90;" parent="1" vertex="1">
          <mxGeometry x="552" y="137.22" width="16.78" height="19.25" as="geometry" />
        </mxCell>
        <mxCell id="pDsfpa7ZJhmcw9KZ6Ipp-21" value="" style="shape=folder;fontStyle=1;spacingTop=10;tabWidth=150;tabHeight=30;tabPosition=left;html=1;whiteSpace=wrap;" parent="1" vertex="1">
          <mxGeometry x="100" y="290" width="270" height="160" as="geometry" />
        </mxCell>
        <mxCell id="pDsfpa7ZJhmcw9KZ6Ipp-27" value="Presentation Layer" style="text;html=1;align=center;verticalAlign=middle;whiteSpace=wrap;rounded=0;fontStyle=1" parent="1" vertex="1">
          <mxGeometry x="100" y="290" width="130" height="29.63" as="geometry" />
        </mxCell>
        <mxCell id="pDsfpa7ZJhmcw9KZ6Ipp-28" value="" style="triangle;whiteSpace=wrap;html=1;rotation=-90;" parent="1" vertex="1">
          <mxGeometry x="227" y="294.22" width="16.78" height="19.25" as="geometry" />
        </mxCell>
        <mxCell id="pDsfpa7ZJhmcw9KZ6Ipp-29" value="Command Line User&lt;br&gt;Interface" style="shape=folder;fontStyle=1;spacingTop=10;tabWidth=70;tabHeight=20;tabPosition=left;html=1;whiteSpace=wrap;" parent="1" vertex="1">
          <mxGeometry x="110" y="340" width="120" height="60" as="geometry" />
        </mxCell>
        <mxCell id="pDsfpa7ZJhmcw9KZ6Ipp-30" value="Presentation Logic" style="shape=folder;fontStyle=1;spacingTop=10;tabWidth=70;tabHeight=20;tabPosition=left;html=1;whiteSpace=wrap;" parent="1" vertex="1">
          <mxGeometry x="240" y="340" width="110" height="60" as="geometry" />
        </mxCell>
        <mxCell id="pDsfpa7ZJhmcw9KZ6Ipp-33" style="rounded=0;orthogonalLoop=1;jettySize=auto;html=1;exitX=0.5;exitY=1;exitDx=0;exitDy=0;exitPerimeter=0;entryX=0.651;entryY=-0.019;entryDx=0;entryDy=0;entryPerimeter=0;dashed=1;strokeWidth=2;endArrow=open;endFill=0;" parent="1" source="pDsfpa7ZJhmcw9KZ6Ipp-17" target="pDsfpa7ZJhmcw9KZ6Ipp-27" edge="1">
          <mxGeometry relative="1" as="geometry" />
        </mxCell>
        <mxCell id="pDsfpa7ZJhmcw9KZ6Ipp-34" style="rounded=0;orthogonalLoop=1;jettySize=auto;html=1;exitX=0.5;exitY=1;exitDx=0;exitDy=0;exitPerimeter=0;dashed=1;strokeWidth=2;endArrow=open;endFill=0;entryX=0.5;entryY=0;entryDx=0;entryDy=0;" parent="1" source="pDsfpa7ZJhmcw9KZ6Ipp-19" target="pDsfpa7ZJhmcw9KZ6Ipp-38" edge="1">
          <mxGeometry relative="1" as="geometry">
            <mxPoint x="345" y="190" as="sourcePoint" />
            <mxPoint x="455" y="273" as="targetPoint" />
          </mxGeometry>
        </mxCell>
        <mxCell id="pDsfpa7ZJhmcw9KZ6Ipp-35" value="program.js" style="text;html=1;align=center;verticalAlign=middle;whiteSpace=wrap;rounded=0;fontStyle=0" parent="1" vertex="1">
          <mxGeometry x="110" y="340" width="70" height="19.63" as="geometry" />
        </mxCell>
        <mxCell id="pDsfpa7ZJhmcw9KZ6Ipp-36" value="program.js" style="text;html=1;align=center;verticalAlign=middle;whiteSpace=wrap;rounded=0;fontStyle=0" parent="1" vertex="1">
          <mxGeometry x="240" y="340" width="70" height="19.63" as="geometry" />
        </mxCell>
        <mxCell id="pDsfpa7ZJhmcw9KZ6Ipp-47" style="rounded=0;orthogonalLoop=1;jettySize=auto;html=1;exitX=0;exitY=0;exitDx=270;exitDy=95;exitPerimeter=0;dashed=1;strokeWidth=2;endArrow=open;endFill=0;entryX=0;entryY=0;entryDx=0;entryDy=125;entryPerimeter=0;" parent="1" source="pDsfpa7ZJhmcw9KZ6Ipp-21" target="pDsfpa7ZJhmcw9KZ6Ipp-37" edge="1">
          <mxGeometry relative="1" as="geometry">
            <mxPoint x="395" y="210" as="sourcePoint" />
            <mxPoint x="425" y="360" as="targetPoint" />
          </mxGeometry>
        </mxCell>
        <mxCell id="pDsfpa7ZJhmcw9KZ6Ipp-49" value="Record Workflow" style="shape=folder;fontStyle=1;spacingTop=10;tabWidth=100;tabHeight=20;tabPosition=left;html=1;whiteSpace=wrap;" parent="1" vertex="1">
          <mxGeometry x="627" y="390" width="123" height="80" as="geometry" />
        </mxCell>
        <mxCell id="pDsfpa7ZJhmcw9KZ6Ipp-50" value="record-service.js" style="text;html=1;align=center;verticalAlign=middle;whiteSpace=wrap;rounded=0;fontStyle=0" parent="1" vertex="1">
          <mxGeometry x="627" y="390" width="100" height="19.63" as="geometry" />
        </mxCell>
        <mxCell id="pDsfpa7ZJhmcw9KZ6Ipp-52" style="rounded=0;orthogonalLoop=1;jettySize=auto;html=1;exitX=0.5;exitY=1;exitDx=0;exitDy=0;exitPerimeter=0;dashed=1;strokeWidth=2;endArrow=open;endFill=0;entryX=0;entryY=0;entryDx=110;entryDy=20;entryPerimeter=0;" parent="1" source="pDsfpa7ZJhmcw9KZ6Ipp-49" target="pDsfpa7ZJhmcw9KZ6Ipp-43" edge="1">
          <mxGeometry relative="1" as="geometry">
            <mxPoint x="669" y="480" as="sourcePoint" />
            <mxPoint x="647" y="500" as="targetPoint" />
          </mxGeometry>
        </mxCell>
        <mxCell id="pDsfpa7ZJhmcw9KZ6Ipp-53" value="" style="shape=folder;fontStyle=1;spacingTop=10;tabWidth=170;tabHeight=30;tabPosition=left;html=1;whiteSpace=wrap;" parent="1" vertex="1">
          <mxGeometry x="170" y="600" width="220" height="170" as="geometry" />
        </mxCell>
        <mxCell id="pDsfpa7ZJhmcw9KZ6Ipp-54" value="Persistence/Data Layer" style="text;html=1;align=center;verticalAlign=middle;whiteSpace=wrap;rounded=0;fontStyle=1" parent="1" vertex="1">
          <mxGeometry x="170" y="600" width="150" height="29.63" as="geometry" />
        </mxCell>
        <mxCell id="pDsfpa7ZJhmcw9KZ6Ipp-55" value="" style="triangle;whiteSpace=wrap;html=1;rotation=-90;" parent="1" vertex="1">
          <mxGeometry x="317" y="604.22" width="16.78" height="19.25" as="geometry" />
        </mxCell>
        <mxCell id="pDsfpa7ZJhmcw9KZ6Ipp-56" value="Data Access" style="shape=folder;fontStyle=1;spacingTop=10;tabWidth=100;tabHeight=20;tabPosition=left;html=1;whiteSpace=wrap;" parent="1" vertex="1">
          <mxGeometry x="217" y="660" width="110" height="60" as="geometry" />
        </mxCell>
        <mxCell id="pDsfpa7ZJhmcw9KZ6Ipp-72" value="file-handler.js" style="text;html=1;align=center;verticalAlign=middle;whiteSpace=wrap;rounded=0;fontStyle=0" parent="1" vertex="1">
          <mxGeometry x="217" y="660" width="100" height="19.63" as="geometry" />
        </mxCell>
        <mxCell id="pDsfpa7ZJhmcw9KZ6Ipp-73" style="rounded=0;orthogonalLoop=1;jettySize=auto;html=1;exitX=0.25;exitY=1;exitDx=0;exitDy=0;exitPerimeter=0;dashed=1;strokeWidth=2;endArrow=open;endFill=0;entryX=0;entryY=0;entryDx=220;entryDy=30;entryPerimeter=0;" parent="1" source="pDsfpa7ZJhmcw9KZ6Ipp-37" target="pDsfpa7ZJhmcw9KZ6Ipp-53" edge="1">
          <mxGeometry relative="1" as="geometry">
            <mxPoint x="370" y="485" as="sourcePoint" />
            <mxPoint x="460" y="565" as="targetPoint" />
          </mxGeometry>
        </mxCell>
        <mxCell id="pDsfpa7ZJhmcw9KZ6Ipp-74" value="Data Sources" style="shape=folder;fontStyle=1;spacingTop=10;tabWidth=63;tabHeight=20;tabPosition=left;html=1;whiteSpace=wrap;" parent="1" vertex="1">
          <mxGeometry x="217" y="800" width="110" height="60" as="geometry" />
        </mxCell>
        <mxCell id="pDsfpa7ZJhmcw9KZ6Ipp-77" style="rounded=0;orthogonalLoop=1;jettySize=auto;html=1;exitX=0.5;exitY=1;exitDx=0;exitDy=0;exitPerimeter=0;dashed=1;strokeWidth=2;endArrow=open;endFill=0;entryX=0;entryY=0;entryDx=31.5;entryDy=0;entryPerimeter=0;" parent="1" source="pDsfpa7ZJhmcw9KZ6Ipp-53" target="pDsfpa7ZJhmcw9KZ6Ipp-74" edge="1">
          <mxGeometry relative="1" as="geometry">
            <mxPoint x="545" y="580" as="sourcePoint" />
            <mxPoint x="400" y="650" as="targetPoint" />
          </mxGeometry>
        </mxCell>
        <mxCell id="pDsfpa7ZJhmcw9KZ6Ipp-78" value="" style="triangle;whiteSpace=wrap;html=1;rotation=-90;" parent="1" vertex="1">
          <mxGeometry x="312.52" y="822.74" width="9.78" height="11.22" as="geometry" />
        </mxCell>
        <mxCell id="IKb_Y0uXHvo3AaDJXqwI-1" value="User" style="rounded=1;whiteSpace=wrap;html=1;" parent="1" vertex="1">
          <mxGeometry x="920" y="96.47" width="80" height="33.53" as="geometry" />
        </mxCell>
        <mxCell id="IKb_Y0uXHvo3AaDJXqwI-8" style="rounded=0;orthogonalLoop=1;jettySize=auto;html=1;" parent="1" edge="1">
          <mxGeometry relative="1" as="geometry">
            <mxPoint x="959.5476190476193" y="215.6099999999999" as="sourcePoint" />
            <mxPoint x="1119.5" y="215.6099999999999" as="targetPoint" />
          </mxGeometry>
        </mxCell>
        <mxCell id="IKb_Y0uXHvo3AaDJXqwI-9" value="Start Program" style="edgeLabel;html=1;align=center;verticalAlign=middle;resizable=0;points=[];" parent="IKb_Y0uXHvo3AaDJXqwI-8" vertex="1" connectable="0">
          <mxGeometry x="-0.4859" y="3" relative="1" as="geometry">
            <mxPoint x="38" y="-13" as="offset" />
          </mxGeometry>
        </mxCell>
        <mxCell id="IKb_Y0uXHvo3AaDJXqwI-3" value="" style="shape=umlLifeline;perimeter=lifelinePerimeter;whiteSpace=wrap;html=1;container=1;dropTarget=0;collapsible=0;recursiveResize=0;outlineConnect=0;portConstraint=eastwest;newEdgeStyle={&quot;curved&quot;:0,&quot;rounded&quot;:0};participant=umlActor;size=60;strokeWidth=2;" parent="1" vertex="1">
          <mxGeometry x="945" y="137.22" width="30" height="822.78" as="geometry" />
        </mxCell>
        <mxCell id="IKb_Y0uXHvo3AaDJXqwI-4" value=":Program" style="shape=umlLifeline;perimeter=lifelinePerimeter;whiteSpace=wrap;html=1;container=1;dropTarget=0;collapsible=0;recursiveResize=0;outlineConnect=0;portConstraint=eastwest;newEdgeStyle={&quot;curved&quot;:0,&quot;rounded&quot;:0};strokeWidth=2;" parent="1" vertex="1">
          <mxGeometry x="1070" y="90" width="100" height="870" as="geometry" />
        </mxCell>
        <mxCell id="IKb_Y0uXHvo3AaDJXqwI-5" value=":RecordService" style="shape=umlLifeline;perimeter=lifelinePerimeter;whiteSpace=wrap;html=1;container=1;dropTarget=0;collapsible=0;recursiveResize=0;outlineConnect=0;portConstraint=eastwest;newEdgeStyle={&quot;curved&quot;:0,&quot;rounded&quot;:0};strokeWidth=2;" parent="1" vertex="1">
          <mxGeometry x="1240" y="90" width="100" height="870" as="geometry" />
        </mxCell>
        <mxCell id="IKb_Y0uXHvo3AaDJXqwI-6" value=":FileHandler" style="shape=umlLifeline;perimeter=lifelinePerimeter;whiteSpace=wrap;html=1;container=1;dropTarget=0;collapsible=0;recursiveResize=0;outlineConnect=0;portConstraint=eastwest;newEdgeStyle={&quot;curved&quot;:0,&quot;rounded&quot;:0};strokeWidth=2;" parent="1" vertex="1">
          <mxGeometry x="1410" y="90" width="100" height="870" as="geometry" />
        </mxCell>
        <mxCell id="IKb_Y0uXHvo3AaDJXqwI-10" style="rounded=0;orthogonalLoop=1;jettySize=auto;html=1;" parent="1" edge="1">
          <mxGeometry relative="1" as="geometry">
            <mxPoint x="959.5476190476193" y="255.6099999999999" as="sourcePoint" />
            <mxPoint x="1119.5" y="255.6099999999999" as="targetPoint" />
          </mxGeometry>
        </mxCell>
        <mxCell id="IKb_Y0uXHvo3AaDJXqwI-11" value="Choose Reload Data Option" style="edgeLabel;html=1;align=center;verticalAlign=middle;resizable=0;points=[];" parent="IKb_Y0uXHvo3AaDJXqwI-10" vertex="1" connectable="0">
          <mxGeometry x="-0.4859" y="3" relative="1" as="geometry">
            <mxPoint x="38" y="-13" as="offset" />
          </mxGeometry>
        </mxCell>
        <mxCell id="IKb_Y0uXHvo3AaDJXqwI-12" style="rounded=0;orthogonalLoop=1;jettySize=auto;html=1;" parent="1" edge="1">
          <mxGeometry relative="1" as="geometry">
            <mxPoint x="1119.5476190476193" y="265.0000000000002" as="sourcePoint" />
            <mxPoint x="1289.5" y="265.0000000000002" as="targetPoint" />
          </mxGeometry>
        </mxCell>
        <mxCell id="IKb_Y0uXHvo3AaDJXqwI-13" value="Call for Record Service" style="edgeLabel;html=1;align=center;verticalAlign=middle;resizable=0;points=[];" parent="IKb_Y0uXHvo3AaDJXqwI-12" vertex="1" connectable="0">
          <mxGeometry x="-0.4859" y="3" relative="1" as="geometry">
            <mxPoint x="38" y="-13" as="offset" />
          </mxGeometry>
        </mxCell>
        <mxCell id="IKb_Y0uXHvo3AaDJXqwI-14" style="rounded=0;orthogonalLoop=1;jettySize=auto;html=1;" parent="1" edge="1">
          <mxGeometry relative="1" as="geometry">
            <mxPoint x="1289.5476190476193" y="275.0000000000002" as="sourcePoint" />
            <mxPoint x="1459.5" y="275.0000000000002" as="targetPoint" />
          </mxGeometry>
        </mxCell>
        <mxCell id="IKb_Y0uXHvo3AaDJXqwI-15" value="Call Records from File Handler" style="edgeLabel;html=1;align=center;verticalAlign=middle;resizable=0;points=[];" parent="IKb_Y0uXHvo3AaDJXqwI-14" vertex="1" connectable="0">
          <mxGeometry x="-0.4859" y="3" relative="1" as="geometry">
            <mxPoint x="38" y="-13" as="offset" />
          </mxGeometry>
        </mxCell>
        <mxCell id="IKb_Y0uXHvo3AaDJXqwI-16" style="rounded=0;orthogonalLoop=1;jettySize=auto;html=1;edgeStyle=orthogonalEdgeStyle;dashed=1;startSize=2;sourcePerimeterSpacing=0;targetPerimeterSpacing=0;" parent="1" edge="1">
          <mxGeometry relative="1" as="geometry">
            <mxPoint x="1459.5476190476193" y="281.0000000000002" as="sourcePoint" />
            <mxPoint x="1459.5476190476193" y="306" as="targetPoint" />
            <Array as="points">
              <mxPoint x="1530" y="281" />
              <mxPoint x="1530" y="306" />
            </Array>
          </mxGeometry>
        </mxCell>
        <mxCell id="IKb_Y0uXHvo3AaDJXqwI-17" value="Fetch Records from File" style="edgeLabel;html=1;align=center;verticalAlign=middle;resizable=0;points=[];" parent="IKb_Y0uXHvo3AaDJXqwI-16" vertex="1" connectable="0">
          <mxGeometry x="-0.4859" y="3" relative="1" as="geometry">
            <mxPoint x="38" y="-13" as="offset" />
          </mxGeometry>
        </mxCell>
        <mxCell id="IKb_Y0uXHvo3AaDJXqwI-18" style="rounded=0;orthogonalLoop=1;jettySize=auto;html=1;dashed=1;" parent="1" edge="1">
          <mxGeometry relative="1" as="geometry">
            <mxPoint x="1459" y="315.0000000000002" as="sourcePoint" />
            <mxPoint x="1290.0476190476193" y="315.0000000000002" as="targetPoint" />
          </mxGeometry>
        </mxCell>
        <mxCell id="IKb_Y0uXHvo3AaDJXqwI-19" value="Load Records from File" style="edgeLabel;html=1;align=center;verticalAlign=middle;resizable=0;points=[];" parent="IKb_Y0uXHvo3AaDJXqwI-18" vertex="1" connectable="0">
          <mxGeometry x="-0.4859" y="3" relative="1" as="geometry">
            <mxPoint x="-42" y="-13" as="offset" />
          </mxGeometry>
        </mxCell>
        <mxCell id="IKb_Y0uXHvo3AaDJXqwI-20" style="rounded=0;orthogonalLoop=1;jettySize=auto;html=1;dashed=1;" parent="1" edge="1">
          <mxGeometry relative="1" as="geometry">
            <mxPoint x="1289" y="325.0000000000002" as="sourcePoint" />
            <mxPoint x="1120.0476190476193" y="325.0000000000002" as="targetPoint" />
          </mxGeometry>
        </mxCell>
        <mxCell id="IKb_Y0uXHvo3AaDJXqwI-21" value="Return Records from Service" style="edgeLabel;html=1;align=center;verticalAlign=middle;resizable=0;points=[];" parent="IKb_Y0uXHvo3AaDJXqwI-20" vertex="1" connectable="0">
          <mxGeometry x="-0.4859" y="3" relative="1" as="geometry">
            <mxPoint x="-42" y="-13" as="offset" />
          </mxGeometry>
        </mxCell>
        <mxCell id="IKb_Y0uXHvo3AaDJXqwI-22" style="rounded=0;orthogonalLoop=1;jettySize=auto;html=1;dashed=1;" parent="1" edge="1">
          <mxGeometry relative="1" as="geometry">
            <mxPoint x="1119" y="335.0000000000002" as="sourcePoint" />
            <mxPoint x="960.0476190476193" y="335.0000000000002" as="targetPoint" />
          </mxGeometry>
        </mxCell>
        <mxCell id="IKb_Y0uXHvo3AaDJXqwI-23" value="Reload Data with Records" style="edgeLabel;html=1;align=center;verticalAlign=middle;resizable=0;points=[];" parent="IKb_Y0uXHvo3AaDJXqwI-22" vertex="1" connectable="0">
          <mxGeometry x="-0.4859" y="3" relative="1" as="geometry">
            <mxPoint x="-42" y="-13" as="offset" />
          </mxGeometry>
        </mxCell>
        <mxCell id="IKb_Y0uXHvo3AaDJXqwI-25" style="rounded=0;orthogonalLoop=1;jettySize=auto;html=1;" parent="1" edge="1">
          <mxGeometry relative="1" as="geometry">
            <mxPoint x="959.5476190476193" y="395.6099999999999" as="sourcePoint" />
            <mxPoint x="1119.5" y="395.6099999999999" as="targetPoint" />
          </mxGeometry>
        </mxCell>
        <mxCell id="IKb_Y0uXHvo3AaDJXqwI-26" value="Choose Save Data Option" style="edgeLabel;html=1;align=center;verticalAlign=middle;resizable=0;points=[];" parent="IKb_Y0uXHvo3AaDJXqwI-25" vertex="1" connectable="0">
          <mxGeometry x="-0.4859" y="3" relative="1" as="geometry">
            <mxPoint x="38" y="-13" as="offset" />
          </mxGeometry>
        </mxCell>
        <mxCell id="IKb_Y0uXHvo3AaDJXqwI-27" style="rounded=0;orthogonalLoop=1;jettySize=auto;html=1;" parent="1" edge="1">
          <mxGeometry relative="1" as="geometry">
            <mxPoint x="1119.5476190476193" y="405.0000000000002" as="sourcePoint" />
            <mxPoint x="1289.5" y="405.0000000000002" as="targetPoint" />
          </mxGeometry>
        </mxCell>
        <mxCell id="IKb_Y0uXHvo3AaDJXqwI-28" value="Call for Record Service" style="edgeLabel;html=1;align=center;verticalAlign=middle;resizable=0;points=[];" parent="IKb_Y0uXHvo3AaDJXqwI-27" vertex="1" connectable="0">
          <mxGeometry x="-0.4859" y="3" relative="1" as="geometry">
            <mxPoint x="38" y="-13" as="offset" />
          </mxGeometry>
        </mxCell>
        <mxCell id="IKb_Y0uXHvo3AaDJXqwI-29" style="rounded=0;orthogonalLoop=1;jettySize=auto;html=1;" parent="1" edge="1">
          <mxGeometry relative="1" as="geometry">
            <mxPoint x="1289.5476190476193" y="415.0000000000002" as="sourcePoint" />
            <mxPoint x="1459.5" y="415.0000000000002" as="targetPoint" />
          </mxGeometry>
        </mxCell>
        <mxCell id="IKb_Y0uXHvo3AaDJXqwI-30" value="Call Records from File Handler" style="edgeLabel;html=1;align=center;verticalAlign=middle;resizable=0;points=[];" parent="IKb_Y0uXHvo3AaDJXqwI-29" vertex="1" connectable="0">
          <mxGeometry x="-0.4859" y="3" relative="1" as="geometry">
            <mxPoint x="38" y="-13" as="offset" />
          </mxGeometry>
        </mxCell>
        <mxCell id="IKb_Y0uXHvo3AaDJXqwI-31" style="rounded=0;orthogonalLoop=1;jettySize=auto;html=1;edgeStyle=orthogonalEdgeStyle;dashed=1;startSize=2;sourcePerimeterSpacing=0;targetPerimeterSpacing=0;" parent="1" edge="1">
          <mxGeometry relative="1" as="geometry">
            <mxPoint x="1459.5476190476193" y="421.0000000000002" as="sourcePoint" />
            <mxPoint x="1459.5476190476193" y="446" as="targetPoint" />
            <Array as="points">
              <mxPoint x="1530" y="421" />
              <mxPoint x="1530" y="446" />
            </Array>
          </mxGeometry>
        </mxCell>
        <mxCell id="IKb_Y0uXHvo3AaDJXqwI-32" value="Fetch Records from File" style="edgeLabel;html=1;align=center;verticalAlign=middle;resizable=0;points=[];" parent="IKb_Y0uXHvo3AaDJXqwI-31" vertex="1" connectable="0">
          <mxGeometry x="-0.4859" y="3" relative="1" as="geometry">
            <mxPoint x="38" y="-13" as="offset" />
          </mxGeometry>
        </mxCell>
        <mxCell id="IKb_Y0uXHvo3AaDJXqwI-33" style="rounded=0;orthogonalLoop=1;jettySize=auto;html=1;dashed=1;" parent="1" edge="1">
          <mxGeometry relative="1" as="geometry">
            <mxPoint x="1459" y="455.0000000000002" as="sourcePoint" />
            <mxPoint x="1290.0476190476193" y="455.0000000000002" as="targetPoint" />
          </mxGeometry>
        </mxCell>
        <mxCell id="IKb_Y0uXHvo3AaDJXqwI-34" value="Load Records from File" style="edgeLabel;html=1;align=center;verticalAlign=middle;resizable=0;points=[];" parent="IKb_Y0uXHvo3AaDJXqwI-33" vertex="1" connectable="0">
          <mxGeometry x="-0.4859" y="3" relative="1" as="geometry">
            <mxPoint x="-42" y="-13" as="offset" />
          </mxGeometry>
        </mxCell>
        <mxCell id="IKb_Y0uXHvo3AaDJXqwI-35" style="rounded=0;orthogonalLoop=1;jettySize=auto;html=1;" parent="1" edge="1">
          <mxGeometry relative="1" as="geometry">
            <mxPoint x="1289.5476190476193" y="495.0000000000002" as="sourcePoint" />
            <mxPoint x="1459.5" y="495.0000000000002" as="targetPoint" />
          </mxGeometry>
        </mxCell>
        <mxCell id="IKb_Y0uXHvo3AaDJXqwI-36" value="Save Records to New File" style="edgeLabel;html=1;align=center;verticalAlign=middle;resizable=0;points=[];" parent="IKb_Y0uXHvo3AaDJXqwI-35" vertex="1" connectable="0">
          <mxGeometry x="-0.4859" y="3" relative="1" as="geometry">
            <mxPoint x="38" y="-13" as="offset" />
          </mxGeometry>
        </mxCell>
        <mxCell id="IKb_Y0uXHvo3AaDJXqwI-37" value="" style="endArrow=none;html=1;rounded=0;strokeWidth=4;" parent="1" edge="1">
          <mxGeometry width="50" height="50" relative="1" as="geometry">
            <mxPoint x="960.0476190476193" y="358.6099999999999" as="sourcePoint" />
            <mxPoint x="1459" y="358.6099999999999" as="targetPoint" />
          </mxGeometry>
        </mxCell>
        <mxCell id="IKb_Y0uXHvo3AaDJXqwI-38" value="" style="endArrow=none;html=1;rounded=0;strokeWidth=4;" parent="1" edge="1">
          <mxGeometry width="50" height="50" relative="1" as="geometry">
            <mxPoint x="960.0476190476193" y="518.6099999999999" as="sourcePoint" />
            <mxPoint x="1459" y="518.6099999999999" as="targetPoint" />
          </mxGeometry>
        </mxCell>
        <mxCell id="IKb_Y0uXHvo3AaDJXqwI-39" style="rounded=0;orthogonalLoop=1;jettySize=auto;html=1;" parent="1" edge="1">
          <mxGeometry relative="1" as="geometry">
            <mxPoint x="959.5476190476193" y="555.6099999999999" as="sourcePoint" />
            <mxPoint x="1119.5" y="555.6099999999999" as="targetPoint" />
          </mxGeometry>
        </mxCell>
        <mxCell id="IKb_Y0uXHvo3AaDJXqwI-40" value="Choose Display Records Option" style="edgeLabel;html=1;align=center;verticalAlign=middle;resizable=0;points=[];" parent="IKb_Y0uXHvo3AaDJXqwI-39" vertex="1" connectable="0">
          <mxGeometry x="-0.4859" y="3" relative="1" as="geometry">
            <mxPoint x="38" y="-13" as="offset" />
          </mxGeometry>
        </mxCell>
        <mxCell id="IKb_Y0uXHvo3AaDJXqwI-41" style="rounded=0;orthogonalLoop=1;jettySize=auto;html=1;" parent="1" edge="1">
          <mxGeometry relative="1" as="geometry">
            <mxPoint x="1119.5476190476193" y="655.0000000000002" as="sourcePoint" />
            <mxPoint x="1289.5" y="655.0000000000002" as="targetPoint" />
          </mxGeometry>
        </mxCell>
        <mxCell id="IKb_Y0uXHvo3AaDJXqwI-42" value="Call for Record Service" style="edgeLabel;html=1;align=center;verticalAlign=middle;resizable=0;points=[];" parent="IKb_Y0uXHvo3AaDJXqwI-41" vertex="1" connectable="0">
          <mxGeometry x="-0.4859" y="3" relative="1" as="geometry">
            <mxPoint x="38" y="-13" as="offset" />
          </mxGeometry>
        </mxCell>
        <mxCell id="IKb_Y0uXHvo3AaDJXqwI-43" style="rounded=0;orthogonalLoop=1;jettySize=auto;html=1;" parent="1" edge="1">
          <mxGeometry relative="1" as="geometry">
            <mxPoint x="1289.5476190476193" y="665.0000000000002" as="sourcePoint" />
            <mxPoint x="1459.5" y="665.0000000000002" as="targetPoint" />
          </mxGeometry>
        </mxCell>
        <mxCell id="IKb_Y0uXHvo3AaDJXqwI-44" value="Call Records from File Handler" style="edgeLabel;html=1;align=center;verticalAlign=middle;resizable=0;points=[];" parent="IKb_Y0uXHvo3AaDJXqwI-43" vertex="1" connectable="0">
          <mxGeometry x="-0.4859" y="3" relative="1" as="geometry">
            <mxPoint x="38" y="-13" as="offset" />
          </mxGeometry>
        </mxCell>
        <mxCell id="IKb_Y0uXHvo3AaDJXqwI-45" style="rounded=0;orthogonalLoop=1;jettySize=auto;html=1;edgeStyle=orthogonalEdgeStyle;dashed=1;startSize=2;sourcePerimeterSpacing=0;targetPerimeterSpacing=0;" parent="1" edge="1">
          <mxGeometry relative="1" as="geometry">
            <mxPoint x="1459.5476190476193" y="671.0000000000002" as="sourcePoint" />
            <mxPoint x="1459.5476190476193" y="696" as="targetPoint" />
            <Array as="points">
              <mxPoint x="1530" y="671" />
              <mxPoint x="1530" y="696" />
            </Array>
          </mxGeometry>
        </mxCell>
        <mxCell id="IKb_Y0uXHvo3AaDJXqwI-46" value="Fetch Records from File" style="edgeLabel;html=1;align=center;verticalAlign=middle;resizable=0;points=[];" parent="IKb_Y0uXHvo3AaDJXqwI-45" vertex="1" connectable="0">
          <mxGeometry x="-0.4859" y="3" relative="1" as="geometry">
            <mxPoint x="38" y="-13" as="offset" />
          </mxGeometry>
        </mxCell>
        <mxCell id="IKb_Y0uXHvo3AaDJXqwI-47" style="rounded=0;orthogonalLoop=1;jettySize=auto;html=1;dashed=1;" parent="1" edge="1">
          <mxGeometry relative="1" as="geometry">
            <mxPoint x="1459" y="725.0000000000002" as="sourcePoint" />
            <mxPoint x="1290.0476190476193" y="725.0000000000002" as="targetPoint" />
          </mxGeometry>
        </mxCell>
        <mxCell id="IKb_Y0uXHvo3AaDJXqwI-48" value="Load Records from File" style="edgeLabel;html=1;align=center;verticalAlign=middle;resizable=0;points=[];" parent="IKb_Y0uXHvo3AaDJXqwI-47" vertex="1" connectable="0">
          <mxGeometry x="-0.4859" y="3" relative="1" as="geometry">
            <mxPoint x="-42" y="-13" as="offset" />
          </mxGeometry>
        </mxCell>
        <mxCell id="IKb_Y0uXHvo3AaDJXqwI-49" style="rounded=0;orthogonalLoop=1;jettySize=auto;html=1;dashed=1;" parent="1" edge="1">
          <mxGeometry relative="1" as="geometry">
            <mxPoint x="1289" y="735.0000000000002" as="sourcePoint" />
            <mxPoint x="1120.0476190476193" y="735.0000000000002" as="targetPoint" />
          </mxGeometry>
        </mxCell>
        <mxCell id="IKb_Y0uXHvo3AaDJXqwI-50" value="Return Records from Service" style="edgeLabel;html=1;align=center;verticalAlign=middle;resizable=0;points=[];" parent="IKb_Y0uXHvo3AaDJXqwI-49" vertex="1" connectable="0">
          <mxGeometry x="-0.4859" y="3" relative="1" as="geometry">
            <mxPoint x="-42" y="-13" as="offset" />
          </mxGeometry>
        </mxCell>
        <mxCell id="IKb_Y0uXHvo3AaDJXqwI-51" style="rounded=0;orthogonalLoop=1;jettySize=auto;html=1;dashed=1;" parent="1" edge="1">
          <mxGeometry relative="1" as="geometry">
            <mxPoint x="1119" y="745.0000000000002" as="sourcePoint" />
            <mxPoint x="960.0476190476193" y="745.0000000000002" as="targetPoint" />
          </mxGeometry>
        </mxCell>
        <mxCell id="IKb_Y0uXHvo3AaDJXqwI-52" value="Display Records" style="edgeLabel;html=1;align=center;verticalAlign=middle;resizable=0;points=[];" parent="IKb_Y0uXHvo3AaDJXqwI-51" vertex="1" connectable="0">
          <mxGeometry x="-0.4859" y="3" relative="1" as="geometry">
            <mxPoint x="-40" y="-13" as="offset" />
          </mxGeometry>
        </mxCell>
        <mxCell id="IKb_Y0uXHvo3AaDJXqwI-53" style="rounded=0;orthogonalLoop=1;jettySize=auto;html=1;dashed=1;" parent="1" edge="1">
          <mxGeometry relative="1" as="geometry">
            <mxPoint x="1119" y="585.0000000000002" as="sourcePoint" />
            <mxPoint x="960.0476190476193" y="585.0000000000002" as="targetPoint" />
          </mxGeometry>
        </mxCell>
        <mxCell id="IKb_Y0uXHvo3AaDJXqwI-54" value="Prompt Display Sub-Options" style="edgeLabel;html=1;align=center;verticalAlign=middle;resizable=0;points=[];" parent="IKb_Y0uXHvo3AaDJXqwI-53" vertex="1" connectable="0">
          <mxGeometry x="-0.4859" y="3" relative="1" as="geometry">
            <mxPoint x="-40" y="-13" as="offset" />
          </mxGeometry>
        </mxCell>
        <mxCell id="IKb_Y0uXHvo3AaDJXqwI-55" style="rounded=0;orthogonalLoop=1;jettySize=auto;html=1;" parent="1" edge="1">
          <mxGeometry relative="1" as="geometry">
            <mxPoint x="959.5476190476193" y="615.6099999999999" as="sourcePoint" />
            <mxPoint x="1119.5" y="615.6099999999999" as="targetPoint" />
          </mxGeometry>
        </mxCell>
        <mxCell id="IKb_Y0uXHvo3AaDJXqwI-56" value="Choose Sub-Display Option" style="edgeLabel;html=1;align=center;verticalAlign=middle;resizable=0;points=[];" parent="IKb_Y0uXHvo3AaDJXqwI-55" vertex="1" connectable="0">
          <mxGeometry x="-0.4859" y="3" relative="1" as="geometry">
            <mxPoint x="38" y="-13" as="offset" />
          </mxGeometry>
        </mxCell>
        <mxCell id="IKb_Y0uXHvo3AaDJXqwI-57" value="" style="endArrow=none;html=1;rounded=0;strokeWidth=4;" parent="1" edge="1">
          <mxGeometry width="50" height="50" relative="1" as="geometry">
            <mxPoint x="960.0476190476193" y="768.6099999999999" as="sourcePoint" />
            <mxPoint x="1459" y="768.6099999999999" as="targetPoint" />
          </mxGeometry>
        </mxCell>
        <mxCell id="IKb_Y0uXHvo3AaDJXqwI-58" style="rounded=0;orthogonalLoop=1;jettySize=auto;html=1;" parent="1" edge="1">
          <mxGeometry relative="1" as="geometry">
            <mxPoint x="959.5476190476193" y="805.6099999999999" as="sourcePoint" />
            <mxPoint x="1119.5" y="805.6099999999999" as="targetPoint" />
          </mxGeometry>
        </mxCell>
        <mxCell id="IKb_Y0uXHvo3AaDJXqwI-59" value="Choose Add Record Option" style="edgeLabel;html=1;align=center;verticalAlign=middle;resizable=0;points=[];" parent="IKb_Y0uXHvo3AaDJXqwI-58" vertex="1" connectable="0">
          <mxGeometry x="-0.4859" y="3" relative="1" as="geometry">
            <mxPoint x="38" y="-13" as="offset" />
          </mxGeometry>
        </mxCell>
        <mxCell id="IKb_Y0uXHvo3AaDJXqwI-60" style="rounded=0;orthogonalLoop=1;jettySize=auto;html=1;dashed=1;" parent="1" edge="1">
          <mxGeometry relative="1" as="geometry">
            <mxPoint x="1119" y="835.0000000000002" as="sourcePoint" />
            <mxPoint x="960.0476190476193" y="835.0000000000002" as="targetPoint" />
          </mxGeometry>
        </mxCell>
        <mxCell id="IKb_Y0uXHvo3AaDJXqwI-61" value="Prompt Record Details" style="edgeLabel;html=1;align=center;verticalAlign=middle;resizable=0;points=[];" parent="IKb_Y0uXHvo3AaDJXqwI-60" vertex="1" connectable="0">
          <mxGeometry x="-0.4859" y="3" relative="1" as="geometry">
            <mxPoint x="-40" y="-13" as="offset" />
          </mxGeometry>
        </mxCell>
        <mxCell id="IKb_Y0uXHvo3AaDJXqwI-62" style="rounded=0;orthogonalLoop=1;jettySize=auto;html=1;" parent="1" edge="1">
          <mxGeometry relative="1" as="geometry">
            <mxPoint x="959.5476190476193" y="865.6099999999999" as="sourcePoint" />
            <mxPoint x="1119.5" y="865.6099999999999" as="targetPoint" />
          </mxGeometry>
        </mxCell>
        <mxCell id="IKb_Y0uXHvo3AaDJXqwI-63" value="Submit Record Details" style="edgeLabel;html=1;align=center;verticalAlign=middle;resizable=0;points=[];" parent="IKb_Y0uXHvo3AaDJXqwI-62" vertex="1" connectable="0">
          <mxGeometry x="-0.4859" y="3" relative="1" as="geometry">
            <mxPoint x="38" y="-13" as="offset" />
          </mxGeometry>
        </mxCell>
        <mxCell id="IKb_Y0uXHvo3AaDJXqwI-64" style="rounded=0;orthogonalLoop=1;jettySize=auto;html=1;" parent="1" edge="1">
          <mxGeometry relative="1" as="geometry">
            <mxPoint x="1119.5476190476193" y="875.0000000000002" as="sourcePoint" />
            <mxPoint x="1289.5" y="875.0000000000002" as="targetPoint" />
          </mxGeometry>
        </mxCell>
        <mxCell id="IKb_Y0uXHvo3AaDJXqwI-65" value="Call for Record Service" style="edgeLabel;html=1;align=center;verticalAlign=middle;resizable=0;points=[];" parent="IKb_Y0uXHvo3AaDJXqwI-64" vertex="1" connectable="0">
          <mxGeometry x="-0.4859" y="3" relative="1" as="geometry">
            <mxPoint x="38" y="-13" as="offset" />
          </mxGeometry>
        </mxCell>
        <mxCell id="IKb_Y0uXHvo3AaDJXqwI-66" style="rounded=0;orthogonalLoop=1;jettySize=auto;html=1;" parent="1" edge="1">
          <mxGeometry relative="1" as="geometry">
            <mxPoint x="1289.5476190476193" y="885.0000000000002" as="sourcePoint" />
            <mxPoint x="1459.5" y="885.0000000000002" as="targetPoint" />
          </mxGeometry>
        </mxCell>
        <mxCell id="IKb_Y0uXHvo3AaDJXqwI-67" value="Send Details to File Service" style="edgeLabel;html=1;align=center;verticalAlign=middle;resizable=0;points=[];" parent="IKb_Y0uXHvo3AaDJXqwI-66" vertex="1" connectable="0">
          <mxGeometry x="-0.4859" y="3" relative="1" as="geometry">
            <mxPoint x="38" y="-13" as="offset" />
          </mxGeometry>
        </mxCell>
        <mxCell id="IKb_Y0uXHvo3AaDJXqwI-68" value="" style="endArrow=none;html=1;rounded=0;strokeWidth=4;" parent="1" edge="1">
          <mxGeometry width="50" height="50" relative="1" as="geometry">
            <mxPoint x="960.0476190476193" y="908.6099999999999" as="sourcePoint" />
            <mxPoint x="1459" y="908.6099999999999" as="targetPoint" />
          </mxGeometry>
        </mxCell>
        <mxCell id="IKb_Y0uXHvo3AaDJXqwI-69" value="Sequence Diagram: Options 1 to 4" style="text;html=1;align=center;verticalAlign=middle;resizable=0;points=[];autosize=1;strokeColor=none;fillColor=none;strokeWidth=1;fontSize=24;" parent="1" vertex="1">
          <mxGeometry x="1035" y="13" width="390" height="40" as="geometry" />
        </mxCell>
        <mxCell id="IKb_Y0uXHvo3AaDJXqwI-70" value="N-Layered Application Diagram" style="text;html=1;align=center;verticalAlign=middle;resizable=0;points=[];autosize=1;strokeColor=none;fillColor=none;strokeWidth=1;fontSize=24;" parent="1" vertex="1">
          <mxGeometry x="240" y="13" width="360" height="40" as="geometry" />
        </mxCell>
        <mxCell id="IKb_Y0uXHvo3AaDJXqwI-71" value="User" style="rounded=1;whiteSpace=wrap;html=1;" parent="1" vertex="1">
          <mxGeometry x="1810" y="96.47" width="80" height="33.53" as="geometry" />
        </mxCell>
        <mxCell id="IKb_Y0uXHvo3AaDJXqwI-74" value="" style="shape=umlLifeline;perimeter=lifelinePerimeter;whiteSpace=wrap;html=1;container=1;dropTarget=0;collapsible=0;recursiveResize=0;outlineConnect=0;portConstraint=eastwest;newEdgeStyle={&quot;curved&quot;:0,&quot;rounded&quot;:0};participant=umlActor;size=60;strokeWidth=2;" parent="1" vertex="1">
          <mxGeometry x="1835" y="137.22" width="30" height="822.78" as="geometry" />
        </mxCell>
        <mxCell id="IKb_Y0uXHvo3AaDJXqwI-75" value=":Program" style="shape=umlLifeline;perimeter=lifelinePerimeter;whiteSpace=wrap;html=1;container=1;dropTarget=0;collapsible=0;recursiveResize=0;outlineConnect=0;portConstraint=eastwest;newEdgeStyle={&quot;curved&quot;:0,&quot;rounded&quot;:0};strokeWidth=2;" parent="1" vertex="1">
          <mxGeometry x="1960" y="90" width="100" height="870" as="geometry" />
        </mxCell>
        <mxCell id="IKb_Y0uXHvo3AaDJXqwI-76" value=":RecordService" style="shape=umlLifeline;perimeter=lifelinePerimeter;whiteSpace=wrap;html=1;container=1;dropTarget=0;collapsible=0;recursiveResize=0;outlineConnect=0;portConstraint=eastwest;newEdgeStyle={&quot;curved&quot;:0,&quot;rounded&quot;:0};strokeWidth=2;" parent="1" vertex="1">
          <mxGeometry x="2130" y="90" width="100" height="870" as="geometry" />
        </mxCell>
        <mxCell id="IKb_Y0uXHvo3AaDJXqwI-77" value=":FileHandler" style="shape=umlLifeline;perimeter=lifelinePerimeter;whiteSpace=wrap;html=1;container=1;dropTarget=0;collapsible=0;recursiveResize=0;outlineConnect=0;portConstraint=eastwest;newEdgeStyle={&quot;curved&quot;:0,&quot;rounded&quot;:0};strokeWidth=2;" parent="1" vertex="1">
          <mxGeometry x="2300" y="90" width="100" height="870" as="geometry" />
        </mxCell>
        <mxCell id="IKb_Y0uXHvo3AaDJXqwI-78" style="rounded=0;orthogonalLoop=1;jettySize=auto;html=1;" parent="1" edge="1">
          <mxGeometry relative="1" as="geometry">
            <mxPoint x="1849.5476190476193" y="225.6099999999999" as="sourcePoint" />
            <mxPoint x="2009.5" y="225.6099999999999" as="targetPoint" />
          </mxGeometry>
        </mxCell>
        <mxCell id="IKb_Y0uXHvo3AaDJXqwI-79" value="Choose Edit Record Option" style="edgeLabel;html=1;align=center;verticalAlign=middle;resizable=0;points=[];" parent="IKb_Y0uXHvo3AaDJXqwI-78" vertex="1" connectable="0">
          <mxGeometry x="-0.4859" y="3" relative="1" as="geometry">
            <mxPoint x="38" y="-13" as="offset" />
          </mxGeometry>
        </mxCell>
        <mxCell id="IKb_Y0uXHvo3AaDJXqwI-80" style="rounded=0;orthogonalLoop=1;jettySize=auto;html=1;" parent="1" edge="1">
          <mxGeometry relative="1" as="geometry">
            <mxPoint x="2009.5476190476193" y="345.0000000000002" as="sourcePoint" />
            <mxPoint x="2179.5" y="345.0000000000002" as="targetPoint" />
          </mxGeometry>
        </mxCell>
        <mxCell id="IKb_Y0uXHvo3AaDJXqwI-81" value="Call for Record Service" style="edgeLabel;html=1;align=center;verticalAlign=middle;resizable=0;points=[];" parent="IKb_Y0uXHvo3AaDJXqwI-80" vertex="1" connectable="0">
          <mxGeometry x="-0.4859" y="3" relative="1" as="geometry">
            <mxPoint x="38" y="-13" as="offset" />
          </mxGeometry>
        </mxCell>
        <mxCell id="IKb_Y0uXHvo3AaDJXqwI-82" style="rounded=0;orthogonalLoop=1;jettySize=auto;html=1;" parent="1" edge="1">
          <mxGeometry relative="1" as="geometry">
            <mxPoint x="2179.5476190476193" y="355.0000000000002" as="sourcePoint" />
            <mxPoint x="2349.5" y="355.0000000000002" as="targetPoint" />
          </mxGeometry>
        </mxCell>
        <mxCell id="IKb_Y0uXHvo3AaDJXqwI-83" value="Send Details to File Service" style="edgeLabel;html=1;align=center;verticalAlign=middle;resizable=0;points=[];" parent="IKb_Y0uXHvo3AaDJXqwI-82" vertex="1" connectable="0">
          <mxGeometry x="-0.4859" y="3" relative="1" as="geometry">
            <mxPoint x="38" y="-13" as="offset" />
          </mxGeometry>
        </mxCell>
        <mxCell id="IKb_Y0uXHvo3AaDJXqwI-92" style="rounded=0;orthogonalLoop=1;jettySize=auto;html=1;" parent="1" edge="1">
          <mxGeometry relative="1" as="geometry">
            <mxPoint x="1849.5476190476193" y="425.6099999999999" as="sourcePoint" />
            <mxPoint x="2009.5" y="425.6099999999999" as="targetPoint" />
          </mxGeometry>
        </mxCell>
        <mxCell id="IKb_Y0uXHvo3AaDJXqwI-93" value="Choose Delete Record Option" style="edgeLabel;html=1;align=center;verticalAlign=middle;resizable=0;points=[];" parent="IKb_Y0uXHvo3AaDJXqwI-92" vertex="1" connectable="0">
          <mxGeometry x="-0.4859" y="3" relative="1" as="geometry">
            <mxPoint x="38" y="-13" as="offset" />
          </mxGeometry>
        </mxCell>
        <mxCell id="IKb_Y0uXHvo3AaDJXqwI-94" style="rounded=0;orthogonalLoop=1;jettySize=auto;html=1;" parent="1" edge="1">
          <mxGeometry relative="1" as="geometry">
            <mxPoint x="2009.5476190476193" y="505.0000000000002" as="sourcePoint" />
            <mxPoint x="2179.5" y="505.0000000000002" as="targetPoint" />
          </mxGeometry>
        </mxCell>
        <mxCell id="IKb_Y0uXHvo3AaDJXqwI-95" value="Call for Record Service" style="edgeLabel;html=1;align=center;verticalAlign=middle;resizable=0;points=[];" parent="IKb_Y0uXHvo3AaDJXqwI-94" vertex="1" connectable="0">
          <mxGeometry x="-0.4859" y="3" relative="1" as="geometry">
            <mxPoint x="38" y="-13" as="offset" />
          </mxGeometry>
        </mxCell>
        <mxCell id="IKb_Y0uXHvo3AaDJXqwI-96" style="rounded=0;orthogonalLoop=1;jettySize=auto;html=1;" parent="1" edge="1">
          <mxGeometry relative="1" as="geometry">
            <mxPoint x="2179.5476190476193" y="515.0000000000002" as="sourcePoint" />
            <mxPoint x="2349.5" y="515.0000000000002" as="targetPoint" />
          </mxGeometry>
        </mxCell>
        <mxCell id="IKb_Y0uXHvo3AaDJXqwI-97" value="Send Changes to File Service" style="edgeLabel;html=1;align=center;verticalAlign=middle;resizable=0;points=[];" parent="IKb_Y0uXHvo3AaDJXqwI-96" vertex="1" connectable="0">
          <mxGeometry x="-0.4859" y="3" relative="1" as="geometry">
            <mxPoint x="38" y="-13" as="offset" />
          </mxGeometry>
        </mxCell>
        <mxCell id="IKb_Y0uXHvo3AaDJXqwI-104" value="" style="endArrow=none;html=1;rounded=0;strokeWidth=4;" parent="1" edge="1">
          <mxGeometry width="50" height="50" relative="1" as="geometry">
            <mxPoint x="1850.0476190476193" y="388.6099999999999" as="sourcePoint" />
            <mxPoint x="2349" y="388.6099999999999" as="targetPoint" />
          </mxGeometry>
        </mxCell>
        <mxCell id="IKb_Y0uXHvo3AaDJXqwI-136" value="Sequence Diagram: Options 5 to 7" style="text;html=1;align=center;verticalAlign=middle;resizable=0;points=[];autosize=1;strokeColor=none;fillColor=none;strokeWidth=1;fontSize=24;" parent="1" vertex="1">
          <mxGeometry x="1925" y="13" width="390" height="40" as="geometry" />
        </mxCell>
        <mxCell id="IKb_Y0uXHvo3AaDJXqwI-138" style="rounded=0;orthogonalLoop=1;jettySize=auto;html=1;dashed=1;edgeStyle=orthogonalEdgeStyle;" parent="1" target="IKb_Y0uXHvo3AaDJXqwI-3" edge="1">
          <mxGeometry relative="1" as="geometry">
            <mxPoint x="1119" y="645.0000000000002" as="sourcePoint" />
            <mxPoint x="910" y="550" as="targetPoint" />
            <Array as="points">
              <mxPoint x="880" y="645" />
              <mxPoint x="880" y="600" />
            </Array>
          </mxGeometry>
        </mxCell>
        <mxCell id="IKb_Y0uXHvo3AaDJXqwI-139" value="Repeat when Needed" style="edgeLabel;html=1;align=center;verticalAlign=middle;resizable=0;points=[];" parent="IKb_Y0uXHvo3AaDJXqwI-138" vertex="1" connectable="0">
          <mxGeometry x="-0.4859" y="3" relative="1" as="geometry">
            <mxPoint x="16" y="-13" as="offset" />
          </mxGeometry>
        </mxCell>
        <mxCell id="IKb_Y0uXHvo3AaDJXqwI-140" style="rounded=0;orthogonalLoop=1;jettySize=auto;html=1;dashed=1;" parent="1" edge="1">
          <mxGeometry relative="1" as="geometry">
            <mxPoint x="2009" y="255.00000000000023" as="sourcePoint" />
            <mxPoint x="1850.0476190476193" y="255.00000000000023" as="targetPoint" />
          </mxGeometry>
        </mxCell>
        <mxCell id="IKb_Y0uXHvo3AaDJXqwI-141" value="Prompt Index Selection" style="edgeLabel;html=1;align=center;verticalAlign=middle;resizable=0;points=[];" parent="IKb_Y0uXHvo3AaDJXqwI-140" vertex="1" connectable="0">
          <mxGeometry x="-0.4859" y="3" relative="1" as="geometry">
            <mxPoint x="-40" y="-13" as="offset" />
          </mxGeometry>
        </mxCell>
        <mxCell id="IKb_Y0uXHvo3AaDJXqwI-142" style="rounded=0;orthogonalLoop=1;jettySize=auto;html=1;" parent="1" edge="1">
          <mxGeometry relative="1" as="geometry">
            <mxPoint x="1849.5476190476193" y="285.6099999999999" as="sourcePoint" />
            <mxPoint x="2009.5" y="285.6099999999999" as="targetPoint" />
          </mxGeometry>
        </mxCell>
        <mxCell id="IKb_Y0uXHvo3AaDJXqwI-143" value="Submit Index Selection" style="edgeLabel;html=1;align=center;verticalAlign=middle;resizable=0;points=[];" parent="IKb_Y0uXHvo3AaDJXqwI-142" vertex="1" connectable="0">
          <mxGeometry x="-0.4859" y="3" relative="1" as="geometry">
            <mxPoint x="38" y="-13" as="offset" />
          </mxGeometry>
        </mxCell>
        <mxCell id="IKb_Y0uXHvo3AaDJXqwI-144" style="rounded=0;orthogonalLoop=1;jettySize=auto;html=1;dashed=1;" parent="1" edge="1">
          <mxGeometry relative="1" as="geometry">
            <mxPoint x="2009" y="305.0000000000002" as="sourcePoint" />
            <mxPoint x="1850.0476190476193" y="305.0000000000002" as="targetPoint" />
          </mxGeometry>
        </mxCell>
        <mxCell id="IKb_Y0uXHvo3AaDJXqwI-145" value="Prompt Record Details" style="edgeLabel;html=1;align=center;verticalAlign=middle;resizable=0;points=[];" parent="IKb_Y0uXHvo3AaDJXqwI-144" vertex="1" connectable="0">
          <mxGeometry x="-0.4859" y="3" relative="1" as="geometry">
            <mxPoint x="-40" y="-13" as="offset" />
          </mxGeometry>
        </mxCell>
        <mxCell id="IKb_Y0uXHvo3AaDJXqwI-147" style="rounded=0;orthogonalLoop=1;jettySize=auto;html=1;" parent="1" edge="1">
          <mxGeometry relative="1" as="geometry">
            <mxPoint x="1849.5476190476193" y="335.6099999999999" as="sourcePoint" />
            <mxPoint x="2009.5" y="335.6099999999999" as="targetPoint" />
          </mxGeometry>
        </mxCell>
        <mxCell id="IKb_Y0uXHvo3AaDJXqwI-148" value="Submit Record Details" style="edgeLabel;html=1;align=center;verticalAlign=middle;resizable=0;points=[];" parent="IKb_Y0uXHvo3AaDJXqwI-147" vertex="1" connectable="0">
          <mxGeometry x="-0.4859" y="3" relative="1" as="geometry">
            <mxPoint x="38" y="-13" as="offset" />
          </mxGeometry>
        </mxCell>
        <mxCell id="IKb_Y0uXHvo3AaDJXqwI-151" style="rounded=0;orthogonalLoop=1;jettySize=auto;html=1;dashed=1;" parent="1" edge="1">
          <mxGeometry relative="1" as="geometry">
            <mxPoint x="2009" y="455.0000000000002" as="sourcePoint" />
            <mxPoint x="1850.0476190476193" y="455.0000000000002" as="targetPoint" />
          </mxGeometry>
        </mxCell>
        <mxCell id="IKb_Y0uXHvo3AaDJXqwI-152" value="Prompt Index Selection" style="edgeLabel;html=1;align=center;verticalAlign=middle;resizable=0;points=[];" parent="IKb_Y0uXHvo3AaDJXqwI-151" vertex="1" connectable="0">
          <mxGeometry x="-0.4859" y="3" relative="1" as="geometry">
            <mxPoint x="-40" y="-13" as="offset" />
          </mxGeometry>
        </mxCell>
        <mxCell id="IKb_Y0uXHvo3AaDJXqwI-153" style="rounded=0;orthogonalLoop=1;jettySize=auto;html=1;" parent="1" edge="1">
          <mxGeometry relative="1" as="geometry">
            <mxPoint x="1849.5476190476193" y="485.6099999999999" as="sourcePoint" />
            <mxPoint x="2009.5" y="485.6099999999999" as="targetPoint" />
          </mxGeometry>
        </mxCell>
        <mxCell id="IKb_Y0uXHvo3AaDJXqwI-154" value="Submit Index Selection" style="edgeLabel;html=1;align=center;verticalAlign=middle;resizable=0;points=[];" parent="IKb_Y0uXHvo3AaDJXqwI-153" vertex="1" connectable="0">
          <mxGeometry x="-0.4859" y="3" relative="1" as="geometry">
            <mxPoint x="38" y="-13" as="offset" />
          </mxGeometry>
        </mxCell>
        <mxCell id="IKb_Y0uXHvo3AaDJXqwI-155" style="rounded=0;orthogonalLoop=1;jettySize=auto;html=1;" parent="1" edge="1">
          <mxGeometry relative="1" as="geometry">
            <mxPoint x="1849.5476190476193" y="575.6099999999999" as="sourcePoint" />
            <mxPoint x="2009.5" y="575.6099999999999" as="targetPoint" />
          </mxGeometry>
        </mxCell>
        <mxCell id="IKb_Y0uXHvo3AaDJXqwI-156" value="Choose Exit Option" style="edgeLabel;html=1;align=center;verticalAlign=middle;resizable=0;points=[];" parent="IKb_Y0uXHvo3AaDJXqwI-155" vertex="1" connectable="0">
          <mxGeometry x="-0.4859" y="3" relative="1" as="geometry">
            <mxPoint x="38" y="-13" as="offset" />
          </mxGeometry>
        </mxCell>
        <mxCell id="IKb_Y0uXHvo3AaDJXqwI-157" value="" style="endArrow=none;html=1;rounded=0;strokeWidth=4;" parent="1" edge="1">
          <mxGeometry width="50" height="50" relative="1" as="geometry">
            <mxPoint x="1850.0476190476193" y="538.6099999999999" as="sourcePoint" />
            <mxPoint x="2349" y="538.6099999999999" as="targetPoint" />
          </mxGeometry>
        </mxCell>
        <mxCell id="IKb_Y0uXHvo3AaDJXqwI-158" style="rounded=0;orthogonalLoop=1;jettySize=auto;html=1;dashed=1;" parent="1" edge="1">
          <mxGeometry relative="1" as="geometry">
            <mxPoint x="2009" y="605.0000000000002" as="sourcePoint" />
            <mxPoint x="1850.0476190476193" y="605.0000000000002" as="targetPoint" />
          </mxGeometry>
        </mxCell>
        <mxCell id="IKb_Y0uXHvo3AaDJXqwI-159" value="Terminate Program" style="edgeLabel;html=1;align=center;verticalAlign=middle;resizable=0;points=[];" parent="IKb_Y0uXHvo3AaDJXqwI-158" vertex="1" connectable="0">
          <mxGeometry x="-0.4859" y="3" relative="1" as="geometry">
            <mxPoint x="-40" y="-13" as="offset" />
          </mxGeometry>
        </mxCell>
      </root>
    </mxGraphModel>
  </diagram>
</mxfile>
